<svg width="28" height="28" viewBox="0 0 28 28" fill="none" xmlns="http://www.w3.org/2000/svg">
<path d="M25.2573 19.4529C25.1647 19.3099 25.0143 19.2144 24.8454 19.1916C22.624 18.9014 21.0584 16.8654 21.3485 14.6439C21.5535 13.0747 22.6523 11.768 24.163 11.2968C24.4698 11.1985 24.6388 10.8701 24.5405 10.5633C24.5252 10.5156 24.5038 10.4699 24.4768 10.4276C23.4574 8.58784 21.6448 7.32254 19.5664 7C18.519 7.04998 17.4869 7.27108 16.5109 7.65449C15.81 7.93657 15.0699 8.10933 14.3164 8.16664C13.563 8.10933 12.8229 7.93657 12.122 7.65449C11.146 7.27108 10.1139 7.04998 9.06649 7C6.88836 7 2.6499 10.0881 2.6499 15.7499C2.6499 21.1305 6.57451 27.9998 9.64983 27.9998C10.8233 28.0103 11.9826 27.7433 13.0332 27.2204C13.4288 27.0022 13.8661 26.8702 14.3165 26.8331C14.7668 26.8702 15.2042 27.0022 15.5998 27.2204C16.6504 27.7433 17.8097 28.0103 18.9832 27.9998C21.4215 27.9998 24.1736 23.8138 25.3262 19.9347C25.3745 19.7718 25.3493 19.5958 25.2573 19.4529Z" fill="white"/>
<path d="M13.733 6.99993C17.2752 6.99605 20.1458 4.12553 20.1496 0.583346C20.1496 0.261185 19.8885 0 19.5663 0C16.0241 0.00388277 13.1535 2.8744 13.1497 6.41659C13.1497 6.73875 13.4108 6.99993 13.733 6.99993Z" fill="white"/>
</svg>
