<svg width="606" height="467" viewBox="0 0 606 467" fill="none" xmlns="http://www.w3.org/2000/svg">
<path d="M604.021 463.042H2.04796C1.53734 463.035 1.04287 463.221 0.663905 463.563C0.28494 463.905 0.0495569 464.377 0.00504716 464.886C-0.0143454 465.156 0.0222779 465.428 0.112632 465.683C0.202986 465.939 0.345132 466.173 0.530201 466.372C0.71527 466.57 0.93929 466.729 1.18828 466.837C1.43728 466.945 1.7059 467 1.9774 467H604.021C604.545 467 605.048 466.792 605.419 466.422C605.79 466.052 605.999 465.55 606 465.027C606.001 464.766 605.95 464.508 605.851 464.268C605.752 464.027 605.607 463.808 605.423 463.624C605.239 463.439 605.02 463.293 604.78 463.193C604.539 463.094 604.281 463.042 604.021 463.042Z" fill="#4951EC"/>
<path d="M211.191 86.7716C229.111 86.6904 243.572 72.1135 243.49 54.2133C243.409 36.313 228.816 21.8679 210.897 21.9491C192.977 22.0303 178.516 36.6072 178.597 54.5074C178.679 72.4077 193.271 86.8529 211.191 86.7716Z" fill="#92B5F9"/>
<path d="M223.261 83.4607C217.497 85.8726 211.146 86.5229 205.012 85.3294C198.877 84.1358 193.235 81.1521 188.798 76.7554C184.361 72.3587 181.329 66.7466 180.085 60.6286C178.841 54.5106 179.442 48.1615 181.81 42.3843C184.178 36.607 188.208 31.6609 193.391 28.1715C198.573 24.6821 204.675 22.806 210.924 22.7805C217.174 22.7551 223.291 24.5813 228.501 28.0284C233.712 31.4754 237.782 36.3884 240.198 42.1462C243.427 49.8692 243.458 58.5566 240.283 66.3021C237.108 74.0476 230.986 80.2186 223.261 83.4607Z" fill="#92B5F9"/>
<path d="M233.05 68.0647C240.554 55.9608 236.814 40.072 224.697 32.5761C212.58 25.0801 196.674 28.8156 189.17 40.9195C181.666 53.0233 185.405 68.9121 197.522 76.4081C209.639 83.904 225.545 80.1685 233.05 68.0647Z" fill="white"/>
<path d="M220.527 76.898C216.065 78.7663 211.149 79.2708 206.4 78.3479C201.651 77.425 197.282 75.1161 193.847 71.7131C190.411 68.3101 188.063 63.9659 187.099 59.2299C186.136 54.4938 186.599 49.5786 188.432 45.1059C190.265 40.6331 193.384 36.8037 197.396 34.1018C201.407 31.3999 206.13 29.947 210.969 29.9267C215.807 29.9065 220.542 31.3197 224.576 33.9879C228.61 36.656 231.762 40.4592 233.632 44.9164C236.132 50.8941 236.156 57.6183 233.699 63.6138C231.243 69.6094 226.506 74.3868 220.527 76.898Z" fill="white"/>
<path d="M191.027 61.3269L186.987 63.0186C186.679 63.1602 186.439 63.4154 186.317 63.7303C186.194 64.0453 186.199 64.3954 186.33 64.7071C186.46 65.0187 186.707 65.2674 187.018 65.4008C187.329 65.5343 187.679 65.542 187.996 65.4224L192.036 63.7306C192.343 63.589 192.583 63.3339 192.706 63.0189C192.828 62.704 192.823 62.3538 192.693 62.0422C192.562 61.7306 192.315 61.4818 192.004 61.3484C191.693 61.215 191.343 61.2073 191.027 61.3269Z" fill="#92B5F9"/>
<path d="M218.731 72.6618C218.573 72.7274 218.429 72.8236 218.307 72.9449C218.186 73.0662 218.09 73.2101 218.024 73.3686C217.959 73.527 217.925 73.6968 217.925 73.8683C217.926 74.0397 217.96 74.2094 218.025 74.3677L219.719 78.4033C219.781 78.567 219.876 78.7167 219.997 78.8432C220.118 78.9697 220.263 79.0706 220.425 79.1397C220.586 79.2089 220.759 79.2449 220.934 79.2457C221.11 79.2465 221.283 79.212 221.445 79.1442C221.607 79.0765 221.753 78.977 221.875 78.8515C221.998 78.7261 222.093 78.5773 222.157 78.4141C222.22 78.2508 222.25 78.0765 222.245 77.9015C222.24 77.7264 222.199 77.5543 222.125 77.3952L220.432 73.3597C220.297 73.0434 220.043 72.7929 219.725 72.6623C219.407 72.5317 219.05 72.5315 218.731 72.6618Z" fill="#92B5F9"/>
<path d="M234.111 43.2954L230.071 44.9872C229.764 45.1287 229.524 45.3839 229.401 45.6988C229.279 46.0138 229.283 46.364 229.414 46.6756C229.545 46.9872 229.792 47.2359 230.103 47.3693C230.413 47.5028 230.764 47.5105 231.08 47.3909L235.12 45.6991C235.427 45.5575 235.667 45.3024 235.79 44.9874C235.913 44.6725 235.908 44.3223 235.777 44.0107C235.646 43.6991 235.4 43.4504 235.089 43.3169C234.778 43.1835 234.427 43.1758 234.111 43.2954Z" fill="#92B5F9"/>
<path d="M200.673 29.6237C200.514 29.6894 200.37 29.7856 200.249 29.9068C200.128 30.0281 200.031 30.1721 199.966 30.3305C199.9 30.489 199.867 30.6588 199.867 30.8302C199.867 31.0016 199.901 31.1713 199.967 31.3296L201.661 35.3652C201.803 35.672 202.058 35.9119 202.373 36.0343C202.689 36.1567 203.039 36.1521 203.351 36.0214C203.663 35.8908 203.912 35.6442 204.046 35.3338C204.179 35.0233 204.187 34.6732 204.067 34.3572L202.381 30.311C202.245 29.9943 201.989 29.7443 201.669 29.6155C201.349 29.4867 200.991 29.4897 200.673 29.6237Z" fill="#92B5F9"/>
<path d="M210.115 12.9991L209.755 18.1308C209.726 18.5513 210.043 18.9159 210.464 18.9454L216.357 19.3574C216.777 19.3868 217.143 19.0699 217.172 18.6494L217.532 13.5177C217.561 13.0972 217.244 12.7325 216.823 12.7031L210.93 12.2911C210.51 12.2616 210.144 12.5786 210.115 12.9991Z" fill="#92B5F9"/>
<path d="M181.932 25.2176L178.102 29.6909C177.829 30.0105 177.866 30.4911 178.186 30.7644L182.091 34.1C182.41 34.3733 182.892 34.3358 183.165 34.0162L186.995 29.5429C187.269 29.2234 187.231 28.7428 186.911 28.4695L183.007 25.1339C182.687 24.8606 182.206 24.8981 181.932 25.2176Z" fill="#92B5F9"/>
<path d="M191.118 15.2142L198.062 12.3069C198.244 12.2306 198.449 12.2298 198.632 12.3045C198.815 12.3792 198.96 12.5234 199.037 12.7053L200.466 16.1119C200.542 16.2929 200.543 16.4967 200.468 16.6783C200.394 16.86 200.25 17.0047 200.069 17.0806L193.122 19.9893C192.939 20.0656 192.735 20.0664 192.552 19.9917C192.369 19.917 192.223 19.7728 192.147 19.5909L190.719 16.1876C190.643 16.0057 190.642 15.8009 190.717 15.6184C190.792 15.4359 190.936 15.2905 191.118 15.2142Z" fill="#92B5F9"/>
<path d="M194.95 21.2281C193.028 21.3737 191.117 20.8311 189.559 19.6977C188.001 18.5642 186.898 16.9138 186.447 15.0419C185.996 13.1701 186.227 11.199 187.098 9.48145C187.969 7.76394 189.423 6.4122 191.201 5.6682C192.979 4.92421 194.963 4.83654 196.8 5.4209C198.636 6.00525 200.205 7.22348 201.224 8.85748C202.243 10.4915 202.647 12.4346 202.363 14.3389C202.08 16.2432 201.126 17.9845 199.675 19.2509L200.451 21.0977C202.387 19.6135 203.716 17.476 204.19 15.0845C204.663 12.693 204.249 10.211 203.024 8.10232C201.8 5.99358 199.848 4.4023 197.535 3.62574C195.222 2.84917 192.704 2.94044 190.454 3.88248C188.203 4.82453 186.372 6.55292 185.304 8.74479C184.235 10.9367 184.002 13.4421 184.648 15.793C185.294 18.1439 186.775 20.1796 188.813 21.5197C190.852 22.8598 193.309 23.4126 195.726 23.075L194.95 21.2281Z" fill="#92B5F9"/>
<path d="M198.256 23.8645C199.068 23.512 199.886 23.2195 200.726 22.9481L198.651 18.0349L194.805 19.6421L196.845 24.4954C197.303 24.2733 197.776 24.0619 198.256 23.8645Z" fill="#92B5F9"/>
<path d="M213.244 53.3967C213.425 53.8301 213.474 54.3073 213.383 54.7682C213.293 55.229 213.068 55.6527 212.736 55.9857C212.405 56.3188 211.982 56.5463 211.521 56.6394C211.06 56.7326 210.582 56.6872 210.147 56.5091C209.712 56.3309 209.34 56.028 209.077 55.6386C208.815 55.2492 208.673 54.7907 208.671 54.3211C208.669 53.8515 208.807 53.3919 209.066 53.0003C209.326 52.6086 209.695 52.3026 210.129 52.1208C210.417 51.9998 210.727 51.9369 211.039 51.9356C211.352 51.9342 211.662 51.9946 211.952 52.1131C212.241 52.2316 212.504 52.406 212.726 52.6262C212.948 52.8465 213.124 53.1083 213.244 53.3967Z" fill="#92B5F9"/>
<path d="M213.583 34.8928L211.883 54.4293C211.836 54.6413 211.714 54.8291 211.539 54.9577C211.364 55.0862 211.148 55.1466 210.932 55.1276C210.716 55.1086 210.514 55.0114 210.364 54.8543C210.214 54.6972 210.127 54.491 210.118 54.2742C210.108 54.1826 209.942 55.0426 213.583 34.8928Z" fill="#92B5F9"/>
<path d="M228.247 63.9808L210.707 55.1695C210.495 55.0629 210.333 54.8764 210.259 54.651C210.184 54.4256 210.202 54.1798 210.308 53.9676C210.415 53.7554 210.602 53.5943 210.827 53.5196C211.053 53.4449 211.299 53.4628 211.512 53.5693C211.579 53.6187 210.834 53.1605 228.247 63.9808Z" fill="#92B5F9"/>
<path d="M211.946 53.9252C212.02 54.1021 212.039 54.2969 212.002 54.4849C211.965 54.6729 211.873 54.8458 211.738 54.9816C211.603 55.1174 211.43 55.2101 211.242 55.2479C211.054 55.2858 210.859 55.2671 210.681 55.1942C210.504 55.1213 210.352 54.9976 210.245 54.8385C210.138 54.6795 210.081 54.4924 210.08 54.3007C210.079 54.1091 210.136 53.9216 210.242 53.7619C210.348 53.6022 210.499 53.4775 210.676 53.4036C210.914 53.3052 211.181 53.3049 211.419 53.4027C211.657 53.5004 211.846 53.6883 211.946 53.9252Z" fill="#92B5F9"/>
<path d="M452.39 194.674C452.273 194.541 452.121 194.443 451.951 194.392C451.782 194.341 451.601 194.338 451.43 194.385C449.715 194.846 446.61 194.156 445.079 193.62L443.406 185.351C444.613 184.262 447.206 182.423 448.967 182.179C449.144 182.156 449.31 182.083 449.447 181.969C449.584 181.856 449.687 181.707 449.743 181.538L451.86 175.254C451.916 175.086 451.925 174.905 451.884 174.733C451.844 174.561 451.756 174.403 451.631 174.277C450.371 173.026 449.419 169.995 449.115 168.398L455.466 162.819C457.012 163.32 459.905 164.641 460.988 166.044C461.097 166.185 461.242 166.292 461.409 166.355C461.575 166.417 461.756 166.431 461.93 166.396L468.437 165.085C468.613 165.048 468.775 164.963 468.905 164.838C469.035 164.713 469.127 164.555 469.17 164.38C469.626 162.668 471.774 160.327 473.009 159.266L481.012 161.956C481.364 163.542 481.65 166.707 480.976 168.349C480.91 168.513 480.89 168.693 480.919 168.868C480.948 169.043 481.026 169.206 481.142 169.339L485.535 174.309C485.653 174.442 485.805 174.54 485.975 174.591C486.146 174.642 486.327 174.644 486.498 174.598C488.213 174.136 491.314 174.827 492.849 175.363L494.518 183.631C493.311 184.721 490.718 186.56 488.957 186.803C488.782 186.828 488.617 186.901 488.481 187.013C488.344 187.126 488.242 187.274 488.185 187.441L486.068 193.726C486.012 193.895 486.004 194.076 486.045 194.249C486.086 194.422 486.175 194.58 486.301 194.705C487.56 195.957 488.513 198.988 488.816 200.584L482.465 206.164C480.916 205.663 478.027 204.342 476.94 202.935C476.831 202.795 476.685 202.688 476.519 202.625C476.353 202.563 476.172 202.548 475.998 202.583L469.492 203.894C469.315 203.93 469.153 204.016 469.024 204.141C468.895 204.265 468.804 204.424 468.761 204.599C468.306 206.315 466.154 208.656 464.922 209.716L456.927 207.027C456.574 205.438 456.285 202.276 456.959 200.634C457.026 200.47 457.047 200.29 457.017 200.115C456.988 199.94 456.91 199.777 456.793 199.643L452.39 194.674ZM470.596 192.644C472.209 192.32 473.69 191.526 474.851 190.362C476.012 189.198 476.802 187.715 477.12 186.103C477.437 184.49 477.269 182.82 476.636 181.303C476.003 179.786 474.934 178.49 473.564 177.58C472.193 176.671 470.584 176.187 468.939 176.191C467.293 176.196 465.686 176.687 464.321 177.604C462.955 178.521 461.892 179.822 461.267 181.342C460.642 182.862 460.482 184.533 460.808 186.144C461.245 188.302 462.521 190.198 464.356 191.417C466.191 192.636 468.435 193.077 470.596 192.644ZM471.654 197.867C474.3 197.333 476.728 196.028 478.631 194.116C480.535 192.204 481.827 189.771 482.346 187.125C482.865 184.479 482.587 181.739 481.547 179.251C480.507 176.762 478.752 174.638 476.503 173.147C474.254 171.655 471.614 170.863 468.914 170.871C466.215 170.879 463.579 171.686 461.339 173.19C459.099 174.695 457.356 176.829 456.33 179.323C455.304 181.817 455.042 184.559 455.576 187.202C456.294 190.744 458.39 193.857 461.404 195.857C464.418 197.857 468.104 198.58 471.651 197.867H471.654Z" fill="#B66EB0"/>
<path d="M506.147 224.273C506.183 224.137 506.256 224.013 506.358 223.917C506.46 223.82 506.588 223.754 506.726 223.727L511.877 222.687C512.015 222.659 512.158 222.67 512.289 222.72C512.421 222.769 512.536 222.854 512.622 222.965C513.483 224.075 515.772 225.126 516.997 225.521L522.011 221.101C521.771 219.839 521.016 217.439 520.021 216.448C519.921 216.349 519.85 216.224 519.818 216.087C519.786 215.95 519.792 215.806 519.837 215.673L521.513 210.696C521.558 210.563 521.639 210.446 521.748 210.357C521.856 210.268 521.988 210.211 522.127 210.192C523.538 210.002 525.574 208.546 526.527 207.683L525.204 201.138C523.99 200.711 521.531 200.165 520.172 200.532C520.037 200.568 519.893 200.565 519.759 200.525C519.624 200.484 519.504 200.407 519.41 200.303L515.935 196.366C515.842 196.261 515.78 196.131 515.757 195.993C515.734 195.855 515.75 195.713 515.804 195.583C516.337 194.283 516.101 191.78 515.829 190.522L509.478 188.407C508.504 189.246 506.8 191.1 506.44 192.457C506.403 192.593 506.329 192.716 506.226 192.812C506.123 192.908 505.996 192.974 505.858 193.003L500.706 194.039C500.569 194.067 500.427 194.056 500.295 194.008C500.164 193.959 500.048 193.875 499.962 193.765C499.101 192.651 496.811 191.604 495.587 191.209L490.587 195.611C490.827 196.877 491.582 199.277 492.581 200.267C492.68 200.367 492.749 200.493 492.781 200.629C492.812 200.766 492.806 200.909 492.761 201.043L491.088 206.016C491.043 206.149 490.962 206.267 490.853 206.357C490.745 206.446 490.614 206.504 490.474 206.523C489.08 206.71 487.027 208.169 486.071 209.029L487.394 215.578C488.611 216.001 491.067 216.547 492.425 216.181C492.561 216.144 492.704 216.147 492.839 216.187C492.974 216.228 493.094 216.305 493.188 216.41L496.663 220.347C496.757 220.452 496.819 220.581 496.842 220.72C496.866 220.859 496.85 221.002 496.797 221.132C496.264 222.433 496.501 224.935 496.769 226.194L503.12 228.308C504.083 227.484 505.784 225.63 506.147 224.273ZM507.911 216.378C506.324 216.698 504.677 216.54 503.179 215.925C501.681 215.31 500.399 214.266 499.495 212.923C498.592 211.58 498.107 210 498.103 208.382C498.098 206.765 498.574 205.182 499.469 203.834C500.365 202.486 501.641 201.434 503.136 200.811C504.63 200.187 506.276 200.02 507.865 200.331C509.455 200.642 510.916 201.417 512.065 202.557C513.214 203.697 513.998 205.153 514.319 206.738C514.749 208.864 514.318 211.073 513.118 212.881C511.919 214.689 510.05 215.946 507.922 216.378H507.911Z" fill="#B66EB0"/>
<path d="M143.867 120.215L138.14 118.072L133.119 121.561C132.991 121.651 132.839 121.703 132.682 121.711C132.525 121.719 132.369 121.683 132.232 121.607C132.094 121.531 131.981 121.418 131.905 121.281C131.828 121.144 131.792 120.988 131.8 120.832L132.082 114.727L127.206 111.023C127.081 110.928 126.986 110.8 126.93 110.653C126.875 110.507 126.861 110.348 126.89 110.194C126.92 110.041 126.992 109.898 127.098 109.783C127.205 109.668 127.341 109.585 127.492 109.542L133.395 107.925L135.406 102.152C135.457 102.004 135.549 101.873 135.672 101.774C135.794 101.676 135.941 101.614 136.097 101.595C136.252 101.576 136.41 101.6 136.553 101.666C136.695 101.733 136.816 101.837 136.902 101.968L140.264 107.072L146.383 107.199C146.539 107.202 146.692 107.249 146.824 107.334C146.956 107.419 147.061 107.54 147.127 107.682C147.194 107.824 147.219 107.982 147.2 108.137C147.182 108.293 147.119 108.44 147.021 108.563L143.2 113.338L144.964 119.186C145.01 119.335 145.012 119.495 144.972 119.646C144.931 119.797 144.849 119.933 144.735 120.04C144.621 120.147 144.479 120.22 144.326 120.251C144.173 120.282 144.013 120.269 143.867 120.215Z" fill="#92B5F9"/>
<path d="M152.624 83.6865L149.512 75.3404L141.552 77.7159L138.122 69.6306L130.233 70.9664L126.676 65.3342L123.822 67.1317L128.578 74.6637L136.055 73.3984L139.622 81.8114L147.451 79.4746L150.27 87.0348L152.624 83.6865Z" fill="#7C9AF2"/>
<path d="M487.171 122.111L479.353 117.832L474.889 124.836L467 120.959L461.908 127.123L455.529 125.188L454.548 128.413L463.08 131.003L467.903 125.16L476.11 129.192L480.503 122.305L487.588 126.182L487.171 122.111Z" fill="#BED1F9"/>
<path d="M281.056 16.932L277.712 25.1865L285.192 28.8026L282.256 37.0782L288.978 41.4134L287.796 47.969L291.116 48.5682L292.7 39.8027L286.328 35.6931L289.383 27.0827L282.027 23.5264L285.058 16.0474L281.056 16.932Z" fill="#92B5F9"/>
<path d="M478.217 229.754L476.573 226.518L472.872 226.641L471.284 222.884L467.382 224.234L465.399 220.061L461.652 220.861L459.09 217.16L460.491 216.191L462.41 218.958L466.362 218.116L468.267 222.123L472.237 220.752L473.987 224.9L477.603 224.777L479.128 227.776L481.484 227.202L481.89 228.855L478.217 229.754Z" fill="#B66EB0"/>
<path d="M409.773 79.8693L408.041 74.7271L416.019 71.0334L414.413 63.2019L419.932 59.4623L418.037 56.6709L410.659 61.6757L412.176 69.0949L403.878 72.9401L406.485 80.6765L409.773 79.8693Z" fill="#B66EB0"/>
<path d="M473.669 68.0235C482.462 81.452 470.494 100.097 454.842 97.3123C451.972 96.846 449.031 97.4507 446.578 99.0112L437.916 104.326C436.807 105.041 435.46 105.287 434.17 105.013C432.879 104.738 431.75 103.964 431.029 102.86L427.698 97.7741C426.976 96.6215 426.694 95.2478 426.902 93.9043C427.111 92.5608 427.797 91.3371 428.834 90.4571C436.667 83.7605 439.998 81.8573 441.049 76.2392C444.126 59.8078 464.873 54.5845 473.669 68.0235Z" fill="#BED1F9"/>
<path d="M453.014 75.397C452.821 74.6195 452.684 73.8291 452.605 73.032C452.206 68.3374 455.837 66.7161 457.749 67.925C458.974 68.7004 459.471 70.4979 458.765 72.2002C458.134 73.7299 456.761 74.8366 455.371 76.049C456.102 78.6185 457.282 81.0385 458.857 83.1968C463.137 80.6203 466.196 82.0266 466.397 84.3599C466.434 85.1315 466.235 85.896 465.827 86.552C465.419 87.208 464.82 87.7243 464.111 88.0324C463.246 88.4096 461.002 88.9277 458.349 85.9953C451.119 91.0847 441.685 98.6095 441.656 98.6342L440.46 96.9706C440.489 96.9495 449.867 89.4704 457.072 84.3881C455.576 82.3123 454.412 80.016 453.625 77.5822C445.386 84.7652 438.125 90.4467 437.871 90.6512L436.678 88.984C437.204 88.5576 444.225 83.084 453.014 75.397ZM456.49 69.6802C455.851 69.437 454.154 70.1384 454.838 73.8004C456.744 72.1262 457.326 71.3931 456.49 69.6802ZM460.173 84.8075C461.232 85.9001 462.819 86.8905 463.889 85.7062C465.265 84.1907 463.299 83.0558 460.173 84.8075Z" fill="white"/>
<path d="M446.797 98.8701C446.727 98.9159 446.649 98.9512 446.578 98.997L437.916 104.326C436.807 105.04 435.46 105.287 434.17 105.013C432.879 104.738 431.75 103.964 431.029 102.86L427.698 97.774C426.976 96.6214 426.694 95.2478 426.902 93.9042C427.111 92.5607 427.797 91.3371 428.834 90.4571C432.317 87.4788 434.91 85.4487 436.808 83.616L446.797 98.8701Z" fill="#92B5F9"/>
<path d="M58.0571 350.892C58.0571 350.892 57.7748 349.517 57.7043 349.055C57.6372 348.509 57.5596 346.863 57.5596 346.863C57.5596 346.863 57.5596 341.118 57.983 341.15C58.4064 341.182 58.9604 342.172 59.0838 342.524C59.2073 342.877 59.3908 343.282 59.5143 343.638C59.548 343.729 59.5993 343.811 59.6651 343.882C59.7309 343.952 59.81 344.009 59.8978 344.049C59.9857 344.089 60.0805 344.111 60.177 344.115C60.2734 344.118 60.3696 344.102 60.4599 344.068C60.9115 343.945 60.721 342.422 60.5516 341.911C60.0189 340.311 57.729 336.325 57.5137 335.895C57.2526 335.384 59.0874 325.413 59.4437 321.948C60.1988 316.309 61.2538 310.518 61.3385 309.919L71.419 287.658L64.6904 280.796C64.6904 280.796 53.1527 305.341 52.7187 306.634C52.5105 307.251 51.7802 320.493 51.7872 320.493C51.8366 327.034 51.9001 332.8 51.8825 333.907C51.8825 333.907 50.9298 337.206 50.203 339.271C49.4761 341.337 49.6314 343.525 49.5185 344.139C49.1844 345.711 49.1236 347.329 49.3385 348.921C49.642 351.17 50.397 348.886 50.397 348.886C50.397 348.886 50.5911 344.611 50.9298 344.678C51.1874 344.731 50.9298 347.064 51.2544 349.556C51.3321 350.197 51.4132 350.828 51.4908 351.41C51.699 352.932 52.7011 353.228 52.7399 351.6C52.7656 350.86 52.7385 350.119 52.6587 349.383C52.6153 348.69 52.6295 347.995 52.7011 347.304C52.7011 346.045 52.7011 345.129 52.761 345.157C52.821 345.186 53.008 344.946 53.1139 345.623C53.2409 346.437 53.1139 348.231 53.4067 349.415C53.5655 350.085 53.8125 351.509 53.8125 351.509C53.8125 351.509 54.4652 353.768 54.6028 353.761C55.3509 353.729 55.3508 351.974 55.0121 351.093C55.0149 350.367 54.9404 349.642 54.7898 348.932C54.7898 348.932 54.8604 345.76 55.3085 345.76C55.679 345.76 56.9774 353.327 57.7254 353.243C58.3429 353.19 58.0571 350.892 58.0571 350.892Z" fill="#FB9390"/>
<path d="M67.3332 300.554C67.3332 300.554 63.1486 299.849 60.9292 299.007C57.969 297.907 56.0213 296.942 56.0213 296.942C56.0213 296.942 59.2709 283.051 63.325 274.617C65.001 271.131 66.6946 269.45 69.0586 269.045C69.0586 269.045 74.0406 272.312 73.843 280.189C73.7971 282.036 67.3332 300.554 67.3332 300.554Z" fill="#864881"/>
<path d="M80.1978 347.233L85.6208 397.07C85.6208 397.07 82.971 407.608 83.2886 410.601C83.6061 413.593 89.1845 452.874 89.1845 452.874L88.9481 455.077V461.583H109.642C106.001 459.809 102.482 457.796 99.1062 455.56C98.651 455.263 97.6067 454.322 97.342 452.44C95.7013 440.337 98.9474 399.957 98.9474 399.957L101.505 347.392L80.1978 347.233Z" fill="#FB9390"/>
<path d="M63.5684 357.715C62.4005 358.018 60.601 400.869 59.6343 402.769C53.4985 414.809 52.0377 451.408 52.0377 451.408L50.2559 456.62L48.3435 463.021C48.3435 463.021 54.4688 464.695 57.6831 462.873L57.3303 456.571L57.0056 450.808L72.4845 405.201L80.9526 358.677L63.5684 357.715Z" fill="#FB9390"/>
<path d="M94.3531 274.709C91.855 271.185 81.5522 261.03 80.409 261.052C77.0747 261.111 66.1227 261.119 63.981 262.236V264.629C64.0304 275.332 65.4148 285.988 68.1021 296.35C69.9792 303.571 71.761 311.28 71.5388 314.05L71.5917 314.103C77.9427 320.394 87.9209 319.901 93.718 313.007C93.7334 308.102 94.0231 303.203 94.586 298.33C95.9973 287.369 100.563 283.425 94.3531 274.709Z" fill="#B66EB0"/>
<path d="M77.0539 250.157C77.0539 250.157 77.3397 257.298 76.7011 260.005C76.0624 262.711 75.2439 262.916 80.5999 263.741C82.7169 264.065 84.7316 264.548 84.7316 264.548C84.7316 264.548 84.1812 260.572 84.0965 258.909C83.9624 256.145 84.7175 247.609 84.7175 247.609L77.0539 250.157Z" fill="#FB9390"/>
<path d="M81.1288 253.71C82.0813 254.263 83.124 254.643 84.209 254.834C84.3925 251.464 84.7348 247.594 84.7348 247.594L77.4064 250.041C78.2895 251.579 79.5766 252.848 81.1288 253.71Z" fill="#EF7F7F"/>
<path d="M78.7507 230.152C76.6875 231.018 75.0037 232.595 74.0051 234.596C72.315 237.962 71.6834 247.422 78.3414 251.123C81.6369 252.955 85.437 253.301 87.2259 251.69C89.0147 250.079 88.8313 246.403 88.6372 243.358C88.2844 237.352 86.9612 228.245 78.7507 230.152Z" fill="#FB9390"/>
<path d="M73.8467 242.036C74.2242 243.615 73.7197 245.138 72.7212 245.441C71.7226 245.744 70.6041 244.704 70.2266 243.125C69.8491 241.546 70.3536 240.02 71.3522 239.721C72.3507 239.421 73.4692 240.457 73.8467 242.036Z" fill="#F7A491"/>
<path d="M57.3304 456.546C54.5077 457.84 51.4804 457.04 50.2561 456.627L48.2943 463.042C48.2943 463.042 54.4654 464.868 57.6762 463.042L57.3304 456.546Z" fill="#B66EB0"/>
<path d="M88.7293 463.197H110.252C111.05 463.123 111.244 462.453 110.958 462.044C110.39 461.195 107.878 460.571 105.059 459.225C100.119 459.761 89.7278 456.247 88.9481 455.066C88.4929 457.427 88.2847 463.095 88.7293 463.197Z" fill="#B66EB0"/>
<path d="M131.934 290.943C132.354 290.365 133.747 287.534 133.747 287.534C133.747 287.534 135.194 282.685 134.894 282.748C134.714 282.783 134.121 283.453 133.416 284.94C132.982 285.836 132.509 287.408 132.064 288.183C131.281 289.543 130.406 290.111 130.621 289.593C130.78 289.209 131.327 288.888 131.789 288.077C132.939 286.093 133.956 282.847 133.511 282.914C133.123 282.97 132.011 285.208 130.78 286.949C130.244 287.707 128.72 288.659 127.763 289.262C127.78 288.902 127.845 288.546 127.957 288.204C128.077 287.824 129.785 285.561 129.118 285.275C128.451 284.99 124.383 289.892 124.383 289.892L122.714 292.733L122.566 292.842C122.566 292.842 102.278 300.79 101.597 300.575C100.002 300.068 94.5404 284.281 94.5404 284.281L83.1896 286.326C83.0238 286.237 95.1225 309.824 97.3772 310.98C99.3566 311.995 120.446 301.019 124.408 298.672C129.863 296.557 131.994 294.09 132.876 292.804C133.352 292.099 135.18 289.135 135.18 289.135C135.18 289.135 135.572 285 135.275 284.962C134.273 284.842 133.998 288.736 133.998 288.736C133.998 288.736 132.643 290.576 132.407 290.816C131.832 291.401 131.934 290.943 131.934 290.943Z" fill="#FB9390"/>
<path d="M75.8646 270.515C74.3156 277.074 82.5684 291.697 82.5684 291.697C82.5684 291.697 94.339 285.984 96.4102 283.524C96.4102 283.524 88.2949 270.131 87.7869 269.264C86.7001 267.378 82.886 263.473 80.3138 264.192C78.6872 264.646 75.8646 270.515 75.8646 270.515Z" fill="#864981"/>
<path d="M77.7345 254.341C78.6166 248.324 88.6053 236.062 84.7489 230.938C81.6263 226.793 76.182 228.033 72.7136 229.225C56.9842 234.631 57.8945 254.383 52.9231 257.47C43.9223 263.071 38.3827 266.557 37.7512 279.174C36.982 294.14 49.7052 301.781 65.0042 298.119C73.2323 296.152 75.4128 293.463 78.7083 285.702C80.1973 282.205 83.1964 271.294 82.3743 265.964C81.6227 261.189 77.0288 259.187 77.7345 254.341Z" fill="#0B0754"/>
<path d="M83.7154 243.312C83.7154 245.075 83.0662 246.537 82.2688 246.537C81.4714 246.537 80.8222 245.092 80.8222 243.312C80.8222 241.532 81.4714 240.087 82.2688 240.087C83.0662 240.087 83.7154 241.529 83.7154 243.312Z" fill="#FB9390"/>
<path d="M103.435 379.648L104.173 350.084C104.305 341.749 102.652 333.481 99.3249 325.836L93.7324 313.013C91.537 313.794 89.2668 314.345 86.958 314.659C81.7854 315.255 76.6975 314.659 71.5532 314.057C71.5422 314.232 71.5186 314.406 71.4826 314.578C70.5511 318.935 65.3503 328.641 63.1627 341.908C60.6753 356.971 59.7438 379.497 60.0578 381.262C83.8283 382.341 89.4949 383.197 103.435 379.648Z" fill="#92B5F9"/>
<path d="M399.549 231.639L417.452 249.537C417.452 249.537 451.546 262.856 455.357 271.036C459.167 279.217 451.927 278.84 443.928 277.698C435.93 276.556 413.263 262.475 413.263 262.475L392.499 238.508L399.549 231.639Z" fill="#4951EC"/>
<path d="M451.952 267.434L447.524 265.866L438.953 269.863C438.953 269.863 434.525 272.858 432.38 280.278C430.235 287.697 432.38 332.088 435.954 339.215C439.528 346.341 451.952 267.434 451.952 267.434Z" fill="#BED1F9"/>
<path d="M480.069 445.409C480.069 445.409 483.216 447.432 483.477 448.366C483.738 449.3 486.042 459.384 485.178 460.55C484.313 461.717 481.152 461.153 482.38 462.006C483.308 462.647 489.292 463.141 493.12 462.108C494.235 461.809 493.727 452.38 493.889 450.946C494.129 448.859 495.572 444.126 494.697 442.892C494.27 442.29 491.811 441.232 489.602 440.372C487.281 439.467 484.698 436.908 484.698 436.908L480.069 445.409Z" fill="#FB9390"/>
<path d="M489.406 440.295C489.406 440.295 487.55 458.182 485.373 459.503C484.795 459.856 481.736 460.117 481.453 461.576C481.453 461.615 481.383 463.074 482.311 463.112L493.915 463.074C493.915 463.074 494.039 454.28 493.965 450.833C493.965 450.833 495.567 442.022 495.044 441.38C494.522 440.739 489.406 440.295 489.406 440.295Z" fill="#0B0754"/>
<path d="M525.497 445.409C525.497 445.409 528.644 447.432 528.906 448.366C529.167 449.3 531.471 459.384 530.606 460.55C529.742 461.717 526.58 461.153 527.808 462.006C528.736 462.647 534.72 463.141 538.549 462.108C539.663 461.809 539.155 452.38 539.318 450.946C539.558 448.859 541.001 444.126 540.126 442.892C539.699 442.29 537.24 441.232 535.031 440.372C532.709 439.467 530.126 436.908 530.126 436.908L525.497 445.409Z" fill="#FB9390"/>
<path d="M468.483 329.141C468.483 329.141 479.096 350.193 481.273 355.847L497.447 396.84L533.115 438.754C533.115 438.754 530.504 445.49 526.556 447.294C526.556 447.294 483.549 412.606 480.014 407.143C474.619 398.814 450.065 347.79 450.065 347.79L445.503 337.974L468.483 329.141Z" fill="#91578C"/>
<path d="M442.832 328.92L443.001 346.87C443.001 346.87 435.323 405.508 436.812 408.994C440.44 417.491 480.335 446.283 480.335 446.283L485.761 436.961L457.097 404.997L467.954 373.889C470.992 366.664 477.452 352.7 477.29 344.861C477.149 338.147 463.822 322.576 463.822 322.576L442.832 328.92Z" fill="#B66EB0"/>
<path d="M459.122 355.449C469.707 353.052 478.245 349.32 479.12 346.377C479.508 345.051 473.623 331.658 469.276 313.764C467.865 307.928 468.115 302.44 465.847 281.991C465.367 277.652 463.567 268.562 456.842 266.215C454.478 265.394 453.162 265.51 453.162 265.51C453.106 265.51 444.606 265.58 440.718 267.734C439.758 269.034 436.18 276.154 435.228 295.56C434.811 304.019 433.111 331.239 433.463 335.658C433.516 336.314 433.58 336.948 433.661 337.565C435.196 349.281 447.559 358.071 459.122 355.449Z" fill="#4951EC"/>
<path d="M440.435 280.99H440.467C444.775 280.517 455.614 266.331 455.614 266.331L455.589 266.292L448.886 255.719C448.886 255.719 439.034 257.513 440.961 260.509C442.887 263.504 443.971 270.691 443.971 270.691C443.935 270.772 443.893 270.871 443.833 270.991C443.166 272.446 440.968 276.795 440.435 280.99Z" fill="#FB9390"/>
<path d="M440.982 260.495C439.056 257.502 448.907 255.712 448.907 255.712L449.461 256.59C449.49 257.27 449.397 257.951 449.186 258.599C448.033 261.607 445.791 264.073 442.905 265.51C442.418 263.656 441.773 261.725 440.982 260.495Z" fill="#EF7F7F"/>
<path d="M443.343 238.98C443.555 238.78 451.024 251.052 449.232 256.106C447.439 261.16 441.402 265.192 437.818 263.388C433.855 261.393 427.861 247.316 431.467 241.345C435.073 235.375 443.343 238.98 443.343 238.98Z" fill="#FB9390"/>
<path d="M432.525 233.472C436.921 232.531 444.775 233.824 449.196 236.933C454.633 240.754 454.813 247.535 452.372 251.969C449.93 256.403 451.394 259.666 451.394 259.666C451.394 259.666 443.755 259.187 442.221 253.992C441.571 251.81 442.379 250.333 440.912 249.103C439.779 248.155 438.83 245.402 437.708 243.189C437.708 243.189 432.768 240.57 430.902 242.724C430.238 243.464 426.883 234.684 432.525 233.472Z" fill="#0B0754"/>
<path d="M440.122 250.058C440.789 251.658 442.087 252.645 443.022 252.258C443.957 251.87 444.169 250.256 443.499 248.652C442.828 247.048 441.533 246.065 440.598 246.453C439.663 246.84 439.452 248.455 440.122 250.058Z" fill="#FB9390"/>
<path d="M534.904 440.312C534.904 440.312 532.995 458.182 530.818 459.503C530.24 459.856 527.18 460.117 526.898 461.576C526.898 461.614 526.803 463.123 527.756 463.098L539.35 463.074C539.35 463.074 539.484 454.28 539.41 450.833C539.41 450.833 541.012 442.022 540.489 441.38C539.967 440.739 534.904 440.312 534.904 440.312Z" fill="#0B0754"/>
<path d="M278.491 357.74C269.275 338.482 266.745 309.743 276.787 286.949C293.723 248.476 340.297 232.774 336.878 189.172C336.014 178.186 331.123 169.354 323.918 163.672C304.954 148.714 274.444 156.623 252.67 167.073C238.769 173.749 225.853 183.214 213.922 195.47L207.864 118.456C234.002 99.9273 265.634 90.2596 297.202 87.7642C361.891 82.6853 411.845 106.924 416.929 171.56C421.566 230.511 381.685 256.624 354.933 286.107C340.082 302.464 336.726 315.065 337.877 329.66C338.469 337.206 341.303 346.525 345.858 352.463L278.491 357.74ZM324.938 463.052C262.059 467.987 254.777 383.603 318.298 378.615C380.866 373.706 387.577 458.136 324.938 463.052Z" fill="#B66EB0"/>
<path d="M389.962 235.53C389.846 234.998 390.276 235.421 389.475 231.258C389.207 230.109 388.681 229.035 387.937 228.118C387.524 227.641 387.05 227.221 386.526 226.87C386.414 226.78 386.278 226.726 386.135 226.715C385.992 226.705 385.849 226.737 385.725 226.81C385.601 226.882 385.503 226.99 385.442 227.12C385.381 227.25 385.362 227.395 385.386 227.536C385.531 227.931 386.275 229.299 386.416 229.693C386.557 230.088 386.628 231.061 386.296 231.382C385.965 231.702 380.76 225.742 380.439 225.217C380.091 224.442 379.793 223.645 379.546 222.831C379.546 222.831 379.091 221.421 378.537 221.774C378.185 222.01 377.775 223.184 378.82 225.464C379.733 227.462 380.993 229.063 380.852 229.182C380.478 229.489 378.216 226.782 378.216 226.782C377.845 226.059 377.402 225.375 376.893 224.742C376.54 223.741 375.941 222.493 375.298 222.979C375.182 223.071 375.605 225.207 375.605 225.207C375.605 225.207 376.396 226.617 376.731 227.321C377.324 228.548 378.675 230.035 379.137 230.846C379.525 231.509 379.137 231.354 379.137 231.435C379.137 231.516 378.53 230.751 377.641 229.672C377.193 229.123 376.583 228.615 376.149 227.885C375.704 227.188 375.211 226.523 374.674 225.894C373.502 224.484 372.878 225.446 373.771 226.92C374.123 227.48 374.476 228.086 374.868 228.703C376.35 231.093 378.181 232.961 378.005 233.186C377.772 233.479 374.624 229.877 374.624 229.877C374.624 229.877 372.405 228.396 373.725 230.582C374.642 232.107 375.739 233.518 376.992 234.783C377.514 235.238 378.908 237.377 380.951 238.677C382.994 239.978 386.317 241.945 386.317 241.945C386.695 242.403 387.669 243.897 389.013 246.009L393.953 240.045C392.196 238.195 390.043 235.9 389.962 235.53Z" fill="#FB9390"/>
<path d="M386.049 243.936L392.904 237.944L416.453 261.167C416.453 261.167 452.908 264.361 453.003 264.385L454.46 264.844C467.684 269.404 462.222 280.182 459.693 281.849C453.758 285.726 420.8 283.407 410.239 276.866C401.531 271.466 386.049 243.936 386.049 243.936Z" fill="#7C9AF2"/>
<path d="M140.663 277.222C140.825 277.896 141.077 278.546 141.411 279.154C143.563 283.334 148.559 289.297 148.559 289.297L152.441 280.013C152.441 280.013 151.813 277.095 150.719 272.929C146.972 273.969 143.415 274.561 140.663 277.222Z" fill="#FB9390"/>
<path d="M162.828 269.165C162.828 269.165 141.263 279.065 140.568 278.875C140.119 278.755 131.722 263.772 131.634 249.685C131.591 243.192 137.928 235.35 145.02 236.898C148.58 237.677 148.524 238.734 153.792 246.893C159.06 255.052 162.828 269.165 162.828 269.165Z" fill="#4951EC"/>
<path d="M181.235 446.649C181.235 446.649 180.724 455.679 180.72 455.697C180.53 456.842 179.792 459.676 179.792 460.719C179.792 464.632 197.226 457.396 193.32 455.658C192.967 455.503 191.111 454.315 190.995 452.983C190.818 450.928 190.363 446.776 190.363 446.776L181.235 446.649Z" fill="#FB9390"/>
<path d="M193.274 455.623C193.274 455.623 189.181 456.821 187.085 457.121C184.99 457.42 182.223 454.897 180.734 455.581C179.104 456.328 179.168 463.074 179.168 463.074C179.168 463.074 201.118 464.995 207.292 463.007C209.745 462.221 201.643 458.411 193.274 455.623Z" fill="#0B0754"/>
<path d="M145.564 446.649C145.564 446.649 145.052 455.679 145.052 455.697C144.862 456.842 144.121 459.676 144.121 460.719C144.121 464.632 161.558 457.396 157.652 455.658C157.299 455.503 154.893 453.427 154.78 452.095C154.6 450.044 154.695 446.776 154.695 446.776L145.564 446.649Z" fill="#FB9390"/>
<path d="M157.606 455.623C157.606 455.623 153.513 456.821 151.417 457.121C149.322 457.42 146.555 454.897 145.066 455.581C143.433 456.328 143.369 463.074 143.369 463.074C143.369 463.074 165.422 465.312 171.624 463.007C174.038 462.112 165.975 458.411 157.606 455.623Z" fill="#0B0754"/>
<path d="M150.895 282.223L166.25 259.289C166.314 259.088 166.455 258.676 166.667 258.048C167.443 255.775 169.052 251.038 170.452 246.326V246.277C170.893 244.631 171.828 241.758 172.732 238.977C173.734 235.89 174.979 232.059 175.025 231.403C174.986 231.29 174.912 231.093 174.817 230.825C174.252 229.267 173.494 225.556 173.222 223.942C173.053 222.916 172.869 220.417 174.027 220.417C175.826 220.417 174.969 222.912 175.791 224.47C176.32 222.766 176.737 221.03 177.04 219.272L177.343 214.397C177.4 214.045 177.033 211.338 178.296 211.338H178.356C179.492 211.426 179.467 214.284 179.937 219.124C180.088 218.567 180.237 217.894 180.349 217.277C180.419 216.418 180.547 215.566 180.734 214.725C180.505 213.379 180.639 211.253 181.983 211.451C182.661 211.553 182.604 214.521 182.604 214.521C182.604 214.926 182.558 218.063 182.576 218.683C182.717 217.626 183.257 213.142 184.312 213.142C185.187 213.142 185.257 214.351 185.24 215.307C185.24 215.87 184.679 220.734 184.647 221.298C185.06 220.558 185.55 216.272 185.96 216.272C187.667 216.272 187.05 222.366 186.422 223.956C186.339 224.234 186.274 224.518 186.228 224.805C186.012 225.891 185.656 227.706 184.763 229.338C183.705 231.294 182.212 234.406 181.987 234.882C181.821 235.851 181.306 239.347 180.66 243.739C180.381 245.621 180.081 247.683 179.764 249.819C179.707 250.28 179.386 251.75 178.172 257.262C176.511 264.809 176.338 265.136 176.264 265.274C175.54 266.638 158.975 290.608 158.269 291.627L157.853 292.229L150.895 282.223Z" fill="#FB9390"/>
<path d="M179.457 228.742C179.457 228.742 178.212 225.341 175.992 225.337C176.381 225.206 176.796 225.176 177.199 225.249C177.602 225.322 177.98 225.497 178.297 225.757C179.359 226.648 179.457 228.742 179.457 228.742Z" fill="#EF7F7F"/>
<path d="M147.183 222.169L145.207 235.495C145.207 235.495 152.74 241.945 157.13 240.584C160.813 239.442 158.287 234.307 158.287 234.307C158.287 234.307 156.311 227.191 156.929 223.455C157.546 219.719 147.183 222.169 147.183 222.169Z" fill="#FB9390"/>
<path d="M148.602 226.197C150.493 227.149 154.222 228.446 157.13 228.76C156.851 226.895 156.692 224.921 156.929 223.473C157.204 221.753 155.164 221.358 152.857 221.404C149.858 221.679 147.183 222.179 147.183 222.179L146.802 224.738C147.307 225.331 147.917 225.826 148.602 226.197Z" fill="#EF7F7F"/>
<path d="M137.678 206.795C137.367 206.795 140.656 221.682 145.744 224.245C150.831 226.807 158.424 225.471 159.857 221.46C161.434 217.026 155.686 201.836 148.527 199.904C141.368 197.973 137.678 206.795 137.678 206.795Z" fill="#FB9390"/>
<path d="M143.567 193.113C140.637 194.953 138.347 197.651 137.007 200.838C135.099 201.804 132.773 203.891 131.683 209.516C130.321 216.431 135.166 221.764 140.303 223.367C145.44 224.971 146.301 228.594 146.301 228.594L146.809 224.696C146.809 224.696 145.666 221.302 143.948 219.603C142.229 217.904 144.763 215.426 144.985 213.407C145.158 211.853 144.082 208.825 144.315 206.28C144.315 206.28 147.169 201.67 149.981 200.528C154.78 198.586 148.782 189.905 143.567 193.113Z" fill="#0B0754"/>
<path d="M145.726 215.997C146.393 217.717 146.121 219.427 145.119 219.811C144.117 220.195 142.769 219.106 142.103 217.396C141.436 215.687 141.711 213.971 142.709 213.583C143.708 213.195 145.066 214.291 145.726 215.997Z" fill="#FB9390"/>
<path d="M164.688 282.593L194.326 277.444C194.326 277.444 190.956 268.396 189.739 268.396C188.522 268.396 167.341 278.265 167.341 278.265L165.654 281.874L164.688 282.593Z" fill="#FB9390"/>
<path d="M149.512 304.245C149.512 304.245 146.558 319.474 147.748 331.031C148.937 342.588 149.046 383.603 149.046 383.603L144.459 449.237L155.362 449.49C155.362 449.49 168.293 383.885 168.064 385.57C167.834 387.254 172.4 339.381 172.4 339.381L156.978 302.8L149.512 304.245Z" fill="#0B0754"/>
<path d="M152.405 303.522C152.405 303.522 150.475 317.236 152.885 323.259C155.295 329.283 173.543 388.287 173.783 393.101C174.023 397.916 180.092 451.094 180.092 451.094L192.769 450.713L195.514 391.575L189.77 317.261L184.185 298.471L152.405 303.522Z" fill="#0B0754"/>
<path d="M145.207 235.495C145.207 235.495 148.333 237.684 151.248 237.43C154.162 237.176 158.305 234.307 158.305 234.307L157.722 232.238C157.722 232.238 150.179 231.065 149.988 231.181C149.798 231.297 145.207 235.495 145.207 235.495Z" fill="#FB9390"/>
<path d="M178.54 267.952C178.54 267.952 189.746 279.231 194.802 277.3C199.858 275.368 201.954 268.795 189.612 259.169C178.557 250.555 178.54 267.952 178.54 267.952Z" fill="#FB9390"/>
<path d="M186.122 281.871C184.457 272.217 172.394 242.174 171.43 236.64C170.961 233.951 164.455 233.891 158.255 234.244C151.71 234.596 145.201 235.495 145.201 235.495C145.201 235.495 139.411 236.496 136.863 239.058C134.316 241.621 133.635 248.648 137.301 262.021C140.194 272.594 143.782 278.374 145.557 286.061C145.91 288.641 146.224 291.186 146.615 294.168C147.268 305.665 146.615 320.852 146.615 320.852C146.615 320.852 178.187 327.82 189.975 317.236C189.975 317.236 187.827 291.761 186.122 281.871Z" fill="#7C9AF2"/>
<path d="M194.167 261.111C194.167 261.111 181.786 272.006 181.063 272.006C180.597 272.006 163.396 258.517 159.427 247.436C157.232 241.307 161.837 234.452 167.094 234.476C170.739 234.476 172.362 235.495 179.584 241.991C186.807 248.486 194.167 261.111 194.167 261.111Z" fill="#4951EC"/>
<path d="M383.277 45.114L356.436 63.2547C355.13 64.14 353.524 64.4712 351.973 64.1759C350.422 63.8805 349.052 62.9827 348.162 61.6793L330.006 34.8576C329.12 33.5508 328.791 31.9462 329.09 30.3969C329.389 28.8476 330.292 27.4804 331.6 26.5961L358.444 8.45887C359.752 7.57459 361.359 7.24565 362.91 7.54441C364.461 7.84317 365.829 8.74516 366.715 10.052L384.875 36.8666C385.755 38.1727 386.082 39.7743 385.782 41.3202C385.482 42.8661 384.581 44.2304 383.277 45.114Z" fill="#B66EB0"/>
<path d="M369.777 26.1132C371.454 28.5968 372.357 31.5213 372.371 34.5172C372.386 37.5131 371.511 40.446 369.857 42.9454C368.203 45.4448 365.845 47.3986 363.081 48.5599C360.316 49.7212 357.269 50.0379 354.324 49.4701C351.379 48.9022 348.669 47.4752 346.535 45.3694C344.402 43.2636 342.941 40.5735 342.338 37.6388C341.734 34.7042 342.015 31.6567 343.145 28.8814C344.274 26.106 346.202 23.7274 348.684 22.0459C350.336 20.9272 352.192 20.1449 354.147 19.7438C356.101 19.3427 358.116 19.3308 360.075 19.7086C362.035 20.0864 363.9 20.8466 365.565 21.9456C367.229 23.0446 368.661 24.4608 369.777 26.1132Z" fill="white"/>
<path d="M352.202 28.3796L358.433 35.1679C358.652 35.4067 358.767 35.7227 358.753 36.0462C358.739 36.3698 358.596 36.6744 358.357 36.8931C358.118 37.1119 357.802 37.2268 357.478 37.2126C357.154 37.1984 356.849 37.0562 356.63 36.8174C356.557 36.738 356.496 36.649 356.447 36.553L352.202 28.3796Z" fill="#B66EB0"/>
<path d="M356.944 35.2173L366.343 29.9587L358.133 36.9408C358.03 37.0445 357.906 37.1257 357.77 37.1792C357.634 37.2328 357.488 37.2575 357.342 37.252C357.195 37.2464 357.052 37.2106 356.92 37.1468C356.789 37.083 356.672 36.9927 356.577 36.8815C356.482 36.7702 356.411 36.6405 356.369 36.5006C356.326 36.3606 356.314 36.2135 356.331 36.0683C356.349 35.9232 356.396 35.7833 356.471 35.6575C356.545 35.5316 356.645 35.4226 356.764 35.3372C356.82 35.2925 356.881 35.2524 356.944 35.2173Z" fill="#B66EB0"/>
<path d="M118.695 145.302H64.3234C54.5275 145.302 46.5864 153.235 46.5864 163.02V174.27C46.5864 184.056 54.5275 191.988 64.3234 191.988H118.695C128.491 191.988 136.432 184.056 136.432 174.27V163.02C136.432 153.235 128.491 145.302 118.695 145.302Z" fill="#BED1F9"/>
<path d="M125.77 174.362L147.896 184.27L133.08 163.556L125.77 174.362Z" fill="#BED1F9"/>
<path d="M76.4997 167.137C76.4997 169.037 74.7673 170.577 72.6185 170.577C70.4698 170.577 68.7373 169.037 68.7373 167.137C68.7373 165.237 70.4733 163.693 72.6185 163.693C74.7638 163.693 76.4997 165.237 76.4997 167.137Z" fill="white"/>
<path d="M94.5332 167.137C94.5332 169.037 92.7972 170.577 90.652 170.577C88.5067 170.577 86.7708 169.037 86.7708 167.137C86.7708 165.237 88.5067 163.693 90.652 163.693C92.7972 163.693 94.5332 165.237 94.5332 167.137Z" fill="white"/>
<path d="M112.559 167.137C112.559 169.037 110.823 170.577 108.678 170.577C106.533 170.577 104.797 169.037 104.797 167.137C104.797 165.237 106.533 163.693 108.678 163.693C110.823 163.693 112.559 165.237 112.559 167.137Z" fill="white"/>
<path d="M321.399 9.18492L317.751 1.42038L320.782 0L322.849 4.40214L327.898 1.34989L329.631 4.21181L321.399 9.18492Z" fill="#BED1F9"/>
<path d="M114.984 120.902L106.893 123.781L105.768 120.634L110.354 118.999L107.8 113.687L110.817 112.239L114.984 120.902Z" fill="#B66EB0"/>
<path d="M450.167 42.6717C450.771 44.582 451.372 46.4946 451.97 48.4096C452.439 49.9075 452.788 52.3359 454.253 53.1853C454.445 53.2963 454.674 53.3271 454.889 53.271C455.104 53.215 455.289 53.0766 455.403 52.8857C456.108 51.2891 455.085 49.2519 454.584 47.6906C453.975 45.7803 453.363 43.87 452.749 41.9597C452.227 40.3278 449.652 41.0187 450.167 42.6646V42.6717Z" fill="#92B5F9"/>
<path d="M470.441 40.599C467.339 51.1725 467.308 50.8589 467.537 51.9374C467.717 52.7797 468.867 53.0264 469.439 52.4378C470.144 51.6906 469.982 51.9127 472.967 41.2968C473.426 39.665 470.903 38.9741 470.427 40.5919L470.441 40.599Z" fill="#92B5F9"/>
<path d="M482.275 64.1465L487.758 61.5207C489.381 60.7418 491.48 60.1109 492.592 58.6447C493.082 57.9962 492.408 57.1432 491.717 57.1221C489.91 57.0692 487.987 58.4508 486.424 59.2156L480.955 61.8661C479.424 62.6098 480.765 64.8796 482.292 64.1465H482.275Z" fill="#92B5F9"/>
<path d="M476.286 95.9131C478.16 98.3309 480.041 100.805 482.161 103.011C483.304 104.199 484.984 102.455 483.946 101.249C481.974 98.8878 479.952 96.5862 478.051 94.1684C477.059 92.9031 475.313 94.6795 476.286 95.9307V95.9131Z" fill="#92B5F9"/>
<path d="M483.185 83.5771C484.875 84.3172 486.59 85.0045 488.312 85.6918C489.882 86.3086 491.748 87.4047 493.449 87.165C494.349 87.0346 494.455 85.8328 493.947 85.2759C493.312 84.571 492.969 84.6274 489.233 83.1894C487.546 82.5409 485.874 81.8606 484.18 81.2262C482.822 80.7187 481.837 82.9885 483.185 83.5912V83.5771Z" fill="#92B5F9"/>
</svg>
