<svg width="64" height="64" viewBox="0 0 64 64" fill="none" xmlns="http://www.w3.org/2000/svg">
<circle cx="32.0001" cy="31.7037" r="31.2037" stroke="#B66EB0"/>
<g clip-path="url(#clip0)">
<path d="M24.8616 25.021L22.3438 25.2155C21.6432 25.2697 21.0193 25.6368 20.6318 26.2229L17.7281 30.6146C17.4343 31.059 17.3876 31.6152 17.6031 32.1025C17.8187 32.5897 18.2617 32.9292 18.7881 33.0108L21.0935 33.3678C21.6327 30.506 22.9237 27.6511 24.8616 25.021V25.021Z" fill="#B158AC"/>
<path d="M30.3359 42.6102L30.6929 44.9156C30.7745 45.442 31.1141 45.885 31.6012 46.1005C31.8039 46.1902 32.0185 46.2345 32.232 46.2345C32.5318 46.2345 32.8296 46.1471 33.0892 45.9755L37.481 43.0718C38.067 42.6843 38.4342 42.0603 38.4882 41.3598L38.6827 38.842C36.0526 40.78 33.1978 42.071 30.3359 42.6102V42.6102Z" fill="#B158AC"/>
<path d="M29.4688 41.0124C29.5488 41.0124 29.6293 41.0058 29.7096 40.9924C30.9086 40.792 32.0643 40.4542 33.1667 40.0122L23.6916 30.5371C23.2495 31.6395 22.9118 32.7951 22.7113 33.9942C22.6323 34.4668 22.7909 34.9483 23.1297 35.2872L28.4166 40.5741C28.6979 40.8554 29.0776 41.0124 29.4688 41.0124Z" fill="#B158AC"/>
<path d="M44.2136 30.0577C46.5322 25.5751 46.6181 20.8381 46.4969 18.6164C46.4554 17.8552 45.8485 17.2483 45.0873 17.2069C44.7255 17.1871 44.2968 17.1729 43.8136 17.1729C41.3294 17.1729 37.3987 17.5491 33.646 19.4902C30.6637 21.0328 26.753 24.4294 24.4458 28.8932C24.4731 28.9144 24.4997 28.937 24.5248 28.9621L34.7417 39.1791C34.7668 39.2041 34.7893 39.2307 34.8106 39.258C39.2744 36.9507 42.671 33.04 44.2136 30.0577V30.0577ZM34.3667 23.3166C36.0265 21.6569 38.7272 21.6567 40.3871 23.3166C41.1911 24.1207 41.6339 25.1897 41.6339 26.3268C41.6339 27.4639 41.1911 28.533 40.3871 29.337C39.5573 30.1668 38.4669 30.5818 37.3769 30.5819C36.2866 30.582 35.1968 30.167 34.3667 29.337C33.5627 28.533 33.1198 27.4639 33.1198 26.3268C33.1198 25.1897 33.5627 24.1207 34.3667 23.3166V23.3166Z" fill="#B158AC"/>
<path d="M35.5708 28.1331C36.5667 29.1289 38.1872 29.129 39.1831 28.1331C39.6655 27.6506 39.9312 27.0092 39.9312 26.3269C39.9312 25.6447 39.6655 25.0033 39.1831 24.5208C38.6852 24.0229 38.031 23.7739 37.3769 23.7739C36.7229 23.7739 36.0688 24.0229 35.5708 24.5208C35.0884 25.0033 34.8227 25.6447 34.8227 26.3269C34.8227 27.0092 35.0884 27.6507 35.5708 28.1331Z" fill="#B158AC"/>
<path d="M18.3379 41.1225C18.5558 41.1225 18.7737 41.0394 18.9399 40.8731L21.7197 38.0933C22.0522 37.7608 22.0522 37.2218 21.7197 36.8893C21.3872 36.5568 20.8481 36.5568 20.5156 36.8893L17.7358 39.669C17.4033 40.0015 17.4033 40.5406 17.7358 40.8731C17.9021 41.0394 18.12 41.1225 18.3379 41.1225Z" fill="#B158AC"/>
<path d="M24.2671 39.4366C23.9347 39.1041 23.3956 39.1041 23.0631 39.4366L17.7187 44.781C17.3862 45.1135 17.3862 45.6526 17.7187 45.9851C17.885 46.1513 18.1029 46.2344 18.3208 46.2344C18.5387 46.2344 18.7566 46.1513 18.9228 45.985L24.2671 40.6407C24.5996 40.3082 24.5996 39.7691 24.2671 39.4366V39.4366Z" fill="#B158AC"/>
<path d="M25.6105 41.984L22.8308 44.7638C22.4983 45.0963 22.4983 45.6353 22.8308 45.9678C22.9971 46.1341 23.215 46.2172 23.4328 46.2172C23.6507 46.2172 23.8686 46.1341 24.0348 45.9678L26.8146 43.1881C27.1471 42.8556 27.1471 42.3165 26.8146 41.984C26.4821 41.6515 25.943 41.6515 25.6105 41.984Z" fill="#B158AC"/>
</g>
<defs>
<clipPath id="clip0">
<rect width="29.0617" height="29.0617" fill="white" transform="translate(17.4692 17.1729)"/>
</clipPath>
</defs>
</svg>
