<svg width="30" height="30" viewBox="0 0 30 30" fill="none" xmlns="http://www.w3.org/2000/svg">
<path d="M28.5938 0.937607H14.5312C14.4069 0.937607 14.2877 0.986993 14.1998 1.0749C14.1119 1.16281 14.0625 1.28204 14.0625 1.40636V7.50011H3.28125C2.65965 7.50011 2.06351 7.74704 1.62397 8.18658C1.18443 8.62611 0.9375 9.22226 0.9375 9.84386V22.0314C0.9375 22.653 1.18443 23.2491 1.62397 23.6886C2.06351 24.1282 2.65965 24.3751 3.28125 24.3751H8.90625V26.2501H8.4375C8.06488 26.2512 7.70784 26.3997 7.44436 26.6632C7.18088 26.9267 7.03236 27.2837 7.03125 27.6564V28.5939C7.03125 28.7182 7.08064 28.8374 7.16854 28.9253C7.25645 29.0132 7.37568 29.0626 7.5 29.0626H15.9375C16.0618 29.0626 16.181 29.0132 16.269 28.9253C16.3569 28.8374 16.4062 28.7182 16.4062 28.5939V27.6564C16.4051 27.2837 16.2566 26.9267 15.9931 26.6632C15.7297 26.3997 15.3726 26.2512 15 26.2501H14.5312V24.3751H20.1562C20.464 24.3751 20.7688 24.3145 21.0532 24.1967C21.3375 24.0789 21.5959 23.9063 21.8135 23.6886C22.0312 23.471 22.2038 23.2126 22.3216 22.9283C22.4394 22.6439 22.5 22.3391 22.5 22.0314V13.1251H28.5938C28.7181 13.1251 28.8373 13.0757 28.9252 12.9878C29.0131 12.8999 29.0625 12.7807 29.0625 12.6564V1.40636C29.0625 1.28204 29.0131 1.16281 28.9252 1.0749C28.8373 0.986993 28.7181 0.937607 28.5938 0.937607ZM15 27.1876C15.1243 27.1876 15.2435 27.237 15.3315 27.3249C15.4194 27.4128 15.4688 27.532 15.4688 27.6564V28.1251H7.96875V27.6564C7.96875 27.532 8.01814 27.4128 8.10604 27.3249C8.19395 27.237 8.31318 27.1876 8.4375 27.1876H15ZM9.84375 26.2501V24.3751H13.5938V26.2501H9.84375ZM21.5625 22.0314C21.5614 22.404 21.4129 22.761 21.1494 23.0245C20.8859 23.288 20.5289 23.4365 20.1562 23.4376H3.28125C2.90863 23.4365 2.55159 23.288 2.28811 23.0245C2.02463 22.761 1.87611 22.404 1.875 22.0314V21.5626H21.5625V22.0314ZM21.5625 20.6251H1.875V9.84386C1.87611 9.47124 2.02463 9.1142 2.28811 8.85072C2.55159 8.58723 2.90863 8.43872 3.28125 8.43761H14.0625V12.6564C14.0625 12.7807 14.1119 12.8999 14.1998 12.9878C14.2877 13.0757 14.4069 13.1251 14.5312 13.1251H21.5625V20.6251ZM28.125 12.1876H15V1.87511H28.125V12.1876Z" fill="white"/>
<path d="M7.96875 9.375C6.94894 9.375 5.95203 9.67741 5.10409 10.244C4.25615 10.8106 3.59526 11.6159 3.205 12.558C2.81473 13.5002 2.71262 14.537 2.91158 15.5372C3.11053 16.5374 3.60162 17.4562 4.32273 18.1773C5.04385 18.8984 5.9626 19.3895 6.96282 19.5884C7.96303 19.7874 8.99978 19.6853 9.94196 19.295C10.8841 18.9047 11.6894 18.2438 12.256 17.3959C12.8226 16.548 13.125 15.5511 13.125 14.5312C13.1234 13.1642 12.5796 11.8536 11.613 10.887C10.6464 9.92038 9.33578 9.37661 7.96875 9.375ZM7.96875 18.75C7.13436 18.75 6.31871 18.5026 5.62494 18.039C4.93117 17.5754 4.39044 16.9166 4.07114 16.1457C3.75183 15.3748 3.66828 14.5266 3.83106 13.7082C3.99385 12.8899 4.39564 12.1381 4.98565 11.5481C5.57565 10.9581 6.32736 10.5563 7.14571 10.3936C7.96407 10.2308 8.81232 10.3143 9.5832 10.6336C10.3541 10.9529 11.013 11.4937 11.4765 12.1874C11.9401 12.8812 12.1875 13.6969 12.1875 14.5312C12.1863 15.6498 11.7414 16.7221 10.9505 17.513C10.1596 18.3039 9.08725 18.7488 7.96875 18.75Z" fill="white"/>
<path d="M7.96875 13.125C8.09307 13.125 8.2123 13.1744 8.30021 13.2623C8.38811 13.3502 8.4375 13.4694 8.4375 13.5938H9.375C9.3738 13.3039 9.28309 13.0216 9.11527 12.7853C8.94746 12.549 8.71074 12.3704 8.4375 12.2738V11.7188H7.5V12.2738C7.18749 12.3838 6.92403 12.6009 6.75626 12.8867C6.5885 13.1724 6.52727 13.5082 6.58341 13.8348C6.63956 14.1613 6.80945 14.4574 7.06301 14.6707C7.31657 14.884 7.63743 15.0006 7.96875 15C8.06146 15 8.15209 15.0275 8.22917 15.079C8.30626 15.1305 8.36634 15.2037 8.40182 15.2894C8.4373 15.375 8.44658 15.4693 8.42849 15.5602C8.41041 15.6511 8.36576 15.7347 8.30021 15.8002C8.23465 15.8658 8.15113 15.9104 8.0602 15.9285C7.96927 15.9466 7.87502 15.9373 7.78937 15.9018C7.70371 15.8663 7.63051 15.8063 7.579 15.7292C7.52749 15.6521 7.5 15.5615 7.5 15.4688H6.5625C6.5637 15.7586 6.65441 16.0409 6.82223 16.2772C6.99004 16.5135 7.22676 16.6921 7.5 16.7888V17.3438H8.4375V16.7888C8.75001 16.6787 9.01347 16.4616 9.18124 16.1758C9.349 15.8901 9.41023 15.5543 9.35409 15.2277C9.29794 14.9012 9.12805 14.6051 8.87449 14.3918C8.62093 14.1785 8.30007 14.0619 7.96875 14.0625C7.84443 14.0625 7.7252 14.0131 7.63729 13.9252C7.54939 13.8373 7.5 13.7181 7.5 13.5938C7.5 13.4694 7.54939 13.3502 7.63729 13.2623C7.7252 13.1744 7.84443 13.125 7.96875 13.125Z" fill="white"/>
<path d="M28.9546 17.0438L26.6109 14.2313C26.5655 14.1804 26.5099 14.1397 26.4477 14.1118C26.3855 14.084 26.3181 14.0696 26.25 14.0696C26.1818 14.0696 26.1144 14.084 26.0522 14.1118C25.99 14.1397 25.9344 14.1804 25.889 14.2313L23.5453 17.0438C23.4882 17.1123 23.4519 17.1956 23.4405 17.284C23.4292 17.3724 23.4433 17.4623 23.4811 17.543C23.519 17.6237 23.5791 17.6919 23.6544 17.7396C23.7297 17.7874 23.8171 17.8126 23.9062 17.8125H24.8437V28.5938C24.8437 28.7181 24.8931 28.8373 24.981 28.9252C25.0689 29.0131 25.1881 29.0625 25.3125 29.0625H27.1875C27.3118 29.0625 27.431 29.0131 27.5189 28.9252C27.6068 28.8373 27.6562 28.7181 27.6562 28.5938V17.8125H28.5937C28.6829 17.8126 28.7702 17.7874 28.8455 17.7396C28.9208 17.6919 28.9809 17.6237 29.0188 17.543C29.0567 17.4623 29.0708 17.3724 29.0594 17.284C29.048 17.1956 29.0117 17.1123 28.9546 17.0438ZM27.1875 16.875C27.0631 16.875 26.9439 16.9244 26.856 17.0123C26.7681 17.1002 26.7187 17.2194 26.7187 17.3438V28.125H25.7812V17.3438C25.7812 17.2194 25.7318 17.1002 25.6439 17.0123C25.556 16.9244 25.4368 16.875 25.3125 16.875H24.9047L26.25 15.2625L27.5953 16.875H27.1875Z" fill="white"/>
<path d="M12.9562 3.38906L10.1437 1.04531C10.0752 0.988257 9.9919 0.951918 9.90348 0.940558C9.81506 0.929199 9.72523 0.94329 9.64453 0.981178C9.56383 1.01907 9.49561 1.07918 9.44788 1.15447C9.40014 1.22976 9.37486 1.3171 9.375 1.40625V2.34375H1.40625C1.28193 2.34375 1.1627 2.39314 1.07479 2.48104C0.986886 2.56895 0.9375 2.68818 0.9375 2.8125V4.6875C0.9375 4.81182 0.986886 4.93105 1.07479 5.01896C1.1627 5.10686 1.28193 5.15625 1.40625 5.15625H9.375V6.09375C9.37478 6.18341 9.40027 6.27124 9.44846 6.34685C9.49665 6.42246 9.56551 6.48266 9.64688 6.52031C9.70877 6.54815 9.77588 6.56253 9.84375 6.5625C9.95327 6.56271 10.0594 6.52457 10.1437 6.45469L12.9562 4.11094C13.0093 4.06695 13.0521 4.0118 13.0814 3.94941C13.1107 3.88702 13.1259 3.81894 13.1259 3.75C13.1259 3.68106 13.1107 3.61297 13.0814 3.55059C13.0521 3.4882 13.0093 3.43305 12.9562 3.38906ZM10.3125 5.09062V4.6875C10.3125 4.56318 10.2631 4.44395 10.1752 4.35604C10.0873 4.26814 9.96807 4.21875 9.84375 4.21875H1.875V3.28125H9.84375C9.96807 3.28125 10.0873 3.23186 10.1752 3.14396C10.2631 3.05605 10.3125 2.93682 10.3125 2.8125V2.40937L11.925 3.75L10.3125 5.09062Z" fill="white"/>
<path d="M16.875 11.25H18.75C18.8743 11.25 18.9935 11.2006 19.0815 11.1127C19.1694 11.0248 19.2188 10.9056 19.2188 10.7812V7.03125C19.2188 6.90693 19.1694 6.7877 19.0815 6.69979C18.9935 6.61189 18.8743 6.5625 18.75 6.5625H16.875C16.7507 6.5625 16.6315 6.61189 16.5435 6.69979C16.4556 6.7877 16.4062 6.90693 16.4062 7.03125V10.7812C16.4062 10.9056 16.4556 11.0248 16.5435 11.1127C16.6315 11.2006 16.7507 11.25 16.875 11.25ZM17.3438 7.5H18.2812V10.3125H17.3438V7.5Z" fill="white"/>
<path d="M20.625 11.25H22.5C22.6243 11.25 22.7435 11.2006 22.8315 11.1127C22.9194 11.0248 22.9688 10.9056 22.9688 10.7812V5.15625C22.9688 5.03193 22.9194 4.9127 22.8315 4.82479C22.7435 4.73689 22.6243 4.6875 22.5 4.6875H20.625C20.5007 4.6875 20.3815 4.73689 20.2935 4.82479C20.2056 4.9127 20.1562 5.03193 20.1562 5.15625V10.7812C20.1562 10.9056 20.2056 11.0248 20.2935 11.1127C20.3815 11.2006 20.5007 11.25 20.625 11.25ZM21.0938 5.625H22.0312V10.3125H21.0938V5.625Z" fill="white"/>
<path d="M24.375 11.25H26.25C26.3743 11.25 26.4935 11.2006 26.5815 11.1127C26.6694 11.0248 26.7188 10.9056 26.7188 10.7812V3.28125C26.7188 3.15693 26.6694 3.0377 26.5815 2.94979C26.4935 2.86189 26.3743 2.8125 26.25 2.8125H24.375C24.2507 2.8125 24.1315 2.86189 24.0435 2.94979C23.9556 3.0377 23.9062 3.15693 23.9062 3.28125V10.7812C23.9062 10.9056 23.9556 11.0248 24.0435 11.1127C24.1315 11.2006 24.2507 11.25 24.375 11.25ZM24.8438 3.75H25.7812V10.3125H24.8438V3.75Z" fill="white"/>
<path d="M14.0625 14.0625H15.9375V15H14.0625V14.0625Z" fill="white"/>
<path d="M16.875 14.0625H19.6875V15H16.875V14.0625Z" fill="white"/>
<path d="M14.0625 15.9375H15.9375V16.875H14.0625V15.9375Z" fill="white"/>
<path d="M16.875 15.9375H19.6875V16.875H16.875V15.9375Z" fill="white"/>
<path d="M14.0625 17.8125H15.9375V18.75H14.0625V17.8125Z" fill="white"/>
<path d="M16.875 17.8125H19.6875V18.75H16.875V17.8125Z" fill="white"/>
</svg>
