<svg width="32" height="32" viewBox="0 0 32 32" fill="none" xmlns="http://www.w3.org/2000/svg">
<path d="M6.39998 26.6667H5.33331V27.7333H6.39998V26.6667Z" fill="#702077"/>
<path d="M7.46663 15.4667H6.39996V16.5333H7.46663V15.4667Z" fill="#702077"/>
<path d="M12.8 2.13333H11.7333V3.2H12.8V2.13333Z" fill="#702077"/>
<path d="M14.9333 2.13333H13.8666V3.2H14.9333V2.13333Z" fill="#702077"/>
<path d="M28.8 18.4171V16C28.8 14.9691 27.9643 14.1333 26.9333 14.1333C26.5873 14.1346 26.2487 14.2329 25.9557 14.4171C25.5363 13.4895 24.4444 13.0775 23.5169 13.4969C23.5 13.5045 23.4833 13.5124 23.4667 13.5205V2.66667C23.4649 1.19467 22.272 0.00173333 20.8 0H5.86668C4.39468 0.00173333 3.20175 1.19467 3.20001 2.66667V29.3333C3.20175 30.8053 4.39468 31.9983 5.86668 32H19.2V29.8667H26.6667V32H27.7333V29.8667H28.2667C28.5612 29.8667 28.8 29.6279 28.8 29.3333V25.0667C28.8 24.7721 28.5612 24.5333 28.2667 24.5333H27.7333V23.0571C28.4331 21.6103 28.7977 20.0243 28.8 18.4171ZM4.26668 2.66667C4.26668 1.783 4.98301 1.06667 5.86668 1.06667H20.8C21.6837 1.06667 22.4 1.783 22.4 2.66667V4.26667H4.26668V2.66667ZM18.1333 30.9333H5.86668C4.98301 30.9333 4.26668 30.217 4.26668 29.3333V5.33333H22.4V12.7205C21.8959 12.4709 21.3041 12.4709 20.8 12.7205V9.86667C20.8 8.83573 19.9643 8 18.9333 8C17.9024 8 17.0667 8.83573 17.0667 9.86667V16.048C15.3079 16.3616 14.1365 18.0415 14.45 19.8003C14.6171 20.7375 15.1886 21.5535 16.0123 22.0309L17.5589 22.9136C17.9143 23.118 18.1333 23.4967 18.1333 23.9067V24.5333H17.6C17.3055 24.5333 17.0667 24.7721 17.0667 25.0667V26.6667H7.46668V27.7333H17.0667V29.3333C17.0667 29.6279 17.3055 29.8667 17.6 29.8667H18.1333V30.9333ZM27.7333 28.8H18.1333V25.6H27.7333V28.8ZM26.72 22.6949C26.684 22.7692 26.6657 22.8508 26.6667 22.9333V24.5333H19.2V23.9067C19.1994 23.1133 18.7744 22.3809 18.0859 21.9867L16.5392 21.1035C15.8634 20.71 15.4531 19.9819 15.4667 19.2C15.4703 18.2302 16.1277 17.3849 17.0667 17.1424V19.2H18.1333V9.86667C18.1333 9.42487 18.4915 9.06667 18.9333 9.06667C19.3751 9.06667 19.7333 9.42487 19.7333 9.86667V17.0667H20.8V14.4C20.8 13.9582 21.1582 13.6 21.6 13.6C22.0418 13.6 22.4 13.9582 22.4 14.4V17.0667H23.4667V15.2C23.4667 14.7582 23.8249 14.4 24.2667 14.4C24.7085 14.4 25.0667 14.7582 25.0667 15.2V17.0667H26.1333V16C26.1333 15.5582 26.4915 15.2 26.9333 15.2C27.3751 15.2 27.7333 15.5582 27.7333 16V18.4149C27.7307 19.9007 27.3839 21.3657 26.72 22.6949Z" fill="#702077"/>
<path d="M11.6645 10.8238C11.5416 10.4285 11.2624 10.1007 10.8917 9.91627L9.85225 9.39627C9.62718 9.28387 9.53591 9.01033 9.64831 8.78527C9.72538 8.631 9.88298 8.53347 10.0554 8.53333H10.2112C10.4625 8.53393 10.666 8.73747 10.6666 8.9888V9.06667H11.7333V8.9888C11.7308 8.32613 11.2992 7.74147 10.6666 7.544V6.93333H9.59998V7.544C8.80005 7.7928 8.35331 8.64293 8.60211 9.44287C8.72505 9.83813 9.00425 10.166 9.37491 10.3504L10.4144 10.8704C10.6394 10.9828 10.7307 11.2563 10.6183 11.4814C10.5412 11.6357 10.3836 11.7332 10.2112 11.7333H10.0554C9.80411 11.7327 9.60058 11.5292 9.59998 11.2779V11.2H8.53331V11.2779C8.53578 11.9405 8.96738 12.5252 9.59998 12.7227V13.3333H10.6666V12.7227C11.4666 12.4739 11.9133 11.6237 11.6645 10.8238Z" fill="#702077"/>
<path d="M12.8 17.6H5.8667V18.6667H12.8V17.6Z" fill="#702077"/>
<path d="M12.8 19.7333H5.8667V20.8H12.8V19.7333Z" fill="#702077"/>
<path d="M12.8 21.8667H5.8667V22.9333H12.8V21.8667Z" fill="#702077"/>
<path d="M12.8 15.4667H8.53333V16.5333H12.8V15.4667Z" fill="#702077"/>
<path d="M13.8667 28.8H12.8V29.8667H13.8667V28.8Z" fill="#702077"/>
<path d="M26.6667 26.6667H25.6V27.7333H26.6667V26.6667Z" fill="#702077"/>
</svg>
