<svg width="36" height="36" viewBox="0 0 36 36" fill="none" xmlns="http://www.w3.org/2000/svg">
<path d="M22.8 14.4H21.6V13.2C21.6 11.2118 19.9882 9.60001 18 9.60001C16.0117 9.60001 14.4 11.2118 14.4 13.2V14.4H13.2C12.8686 14.4 12.6 14.6687 12.6 15V23.4C12.6 23.7314 12.8686 24 13.2 24H22.8C23.1313 24 23.4 23.7314 23.4 23.4V15C23.4 14.6687 23.1313 14.4 22.8 14.4ZM15.6 13.2C15.6 11.8745 16.6745 10.8 18 10.8C19.3255 10.8 20.4 11.8745 20.4 13.2V14.4H15.6V13.2ZM22.2 22.8H13.8V15.6H22.2V22.8Z" fill="#702077"/>
<path d="M19.6972 17.9992C19.4437 17.2795 18.7631 16.7985 18 16.8C17.0082 16.7981 16.2027 17.6006 16.2008 18.5923C16.1994 19.3554 16.6803 20.0361 17.4 20.2896V21.6H18.6V20.2896C19.5355 19.9601 20.0267 18.9346 19.6972 17.9992ZM18 19.2C17.6686 19.2 17.4 18.9313 17.4 18.6C17.4 18.2686 17.6686 18 18 18C18.3313 18 18.6 18.2686 18.6 18.6C18.6 18.9313 18.3313 19.2 18 19.2Z" fill="#702077"/>
<path d="M25.8 2.39999H10.2C8.87451 2.39999 7.79999 3.47452 7.79999 4.79999V31.2C7.79999 32.5255 8.87451 33.6 10.2 33.6H25.8C27.1255 33.6 28.2 32.5255 28.2 31.2V4.79999C28.2 3.47452 27.1255 2.39999 25.8 2.39999ZM27 31.2C27 31.8628 26.4628 32.4 25.8 32.4H10.2C9.53721 32.4 8.99999 31.8628 8.99999 31.2V28.8H27V31.2ZM27 27.6H8.99999V8.39999H27V27.6ZM27 7.19999H8.99999V4.79999C8.99999 4.13722 9.53721 3.59999 10.2 3.59999H25.8C26.4628 3.59999 27 4.13722 27 4.79999V7.19999Z" fill="#702077"/>
<path d="M18.6 30H17.4V31.2H18.6V30Z" fill="#702077"/>
<path d="M17.4 4.8H16.2V6H17.4V4.8Z" fill="#702077"/>
<path d="M19.8 4.8H18.6V6H19.8V4.8Z" fill="#702077"/>
<path d="M18.6 25.2H17.4V26.4H18.6V25.2Z" fill="#702077"/>
<path d="M21 25.2H19.8V26.4H21V25.2Z" fill="#702077"/>
<path d="M23.4 25.2H22.2V26.4H23.4V25.2Z" fill="#702077"/>
<path d="M13.8 25.2H12.6V26.4H13.8V25.2Z" fill="#702077"/>
<path d="M16.2 25.2H15V26.4H16.2V25.2Z" fill="#702077"/>
<path d="M9.60002 0C7.28155 0.002625 5.40265 1.88153 5.40002 4.2V12H6.60002V4.2C6.60197 2.544 7.94402 1.20195 9.60002 1.2H12.6V0H9.60002Z" fill="#702077"/>
<path d="M6.60002 13.2H5.40002V14.4H6.60002V13.2Z" fill="#702077"/>
<path d="M29.4 21V31.8C29.3981 33.456 28.056 34.7981 26.4 34.8H25.2V36H26.4C28.7185 35.9974 30.5974 34.1185 30.6 31.8V21H29.4Z" fill="#702077"/>
<path d="M30.6 18.6H29.4V19.8H30.6V18.6Z" fill="#702077"/>
</svg>
