<?xml version="1.0" encoding="iso-8859-1"?>
<!-- Generator: Adobe Illustrator 19.0.0, SVG Export Plug-In . SVG Version: 6.00 Build 0)  -->
<svg version="1.1" id="Capa_1" xmlns="http://www.w3.org/2000/svg" xmlns:xlink="http://www.w3.org/1999/xlink" x="0px" y="0px"
	 viewBox="0 0 480 480" style="enable-background:new 0 0 480 480;" xml:space="preserve">
<g>
	<g>
		<path d="M304,192h-16v-16c0-26.51-21.49-48-48-48c-26.51,0-48,21.49-48,48v16h-16c-4.418,0-8,3.582-8,8v112c0,4.418,3.582,8,8,8
			h128c4.418,0,8-3.582,8-8V200C312,195.582,308.418,192,304,192z M208,176c0-17.673,14.327-32,32-32c17.673,0,32,14.327,32,32v16
			h-64V176z M296,304H184v-96h112V304z"/>
	</g>
</g>
<g>
	<g>
		<path d="M262.63,239.989c-3.38-9.596-12.455-16.009-22.63-15.989c-13.224-0.025-23.964,10.675-23.989,23.898
			c-0.019,10.174,6.393,19.25,15.989,22.63V288h16v-17.472C260.473,266.135,267.023,252.462,262.63,239.989z M240,256
			c-4.418,0-8-3.582-8-8s3.582-8,8-8s8,3.582,8,8S244.418,256,240,256z"/>
	</g>
</g>
<g>
	<g>
		<path d="M344,32H136c-17.673,0-32,14.327-32,32v352c0,17.673,14.327,32,32,32h208c17.673,0,32-14.327,32-32V64
			C376,46.327,361.673,32,344,32z M360,416c0,8.837-7.163,16-16,16H136c-8.837,0-16-7.163-16-16v-32h240V416z M360,368H120V112h240
			V368z M360,96H120V64c0-8.837,7.163-16,16-16h208c8.837,0,16,7.163,16,16V96z"/>
	</g>
</g>
<g>
	<g>
		<rect x="232" y="400" width="16" height="16"/>
	</g>
</g>
<g>
	<g>
		<rect x="216" y="64" width="16" height="16"/>
	</g>
</g>
<g>
	<g>
		<rect x="248" y="64" width="16" height="16"/>
	</g>
</g>
<g>
	<g>
		<rect x="232" y="336" width="16" height="16"/>
	</g>
</g>
<g>
	<g>
		<rect x="264" y="336" width="16" height="16"/>
	</g>
</g>
<g>
	<g>
		<rect x="296" y="336" width="16" height="16"/>
	</g>
</g>
<g>
	<g>
		<rect x="168" y="336" width="16" height="16"/>
	</g>
</g>
<g>
	<g>
		<rect x="200" y="336" width="16" height="16"/>
	</g>
</g>
<g>
	<g>
		<path d="M128,0C97.087,0.035,72.035,25.087,72,56v104h16V56c0.026-22.08,17.92-39.974,40-40h40V0H128z"/>
	</g>
</g>
<g>
	<g>
		<rect x="72" y="176" width="16" height="16"/>
	</g>
</g>
<g>
	<g>
		<path d="M392,280v144c-0.026,22.08-17.92,39.974-40,40h-16v16h16c30.913-0.035,55.965-25.087,56-56V280H392z"/>
	</g>
</g>
<g>
	<g>
		<rect x="392" y="248" width="16" height="16"/>
	</g>
</g>
<g>
</g>
<g>
</g>
<g>
</g>
<g>
</g>
<g>
</g>
<g>
</g>
<g>
</g>
<g>
</g>
<g>
</g>
<g>
</g>
<g>
</g>
<g>
</g>
<g>
</g>
<g>
</g>
<g>
</g>
</svg>
