<svg width="44" height="44" viewBox="0 0 44 44" fill="none" xmlns="http://www.w3.org/2000/svg">
<g clip-path="url(#clip0)">
<path d="M16.0417 32.2886V40.7916C16.0417 41.3856 16.423 41.9117 16.9877 42.0987C17.1288 42.1446 17.2737 42.1666 17.4167 42.1666C17.8457 42.1666 18.26 41.9649 18.524 41.6056L23.4978 34.8369L16.0417 32.2886Z" fill="white"/>
<path d="M43.4221 0.254019C43.0005 -0.0448141 42.4468 -0.0851474 41.9885 0.155019L0.73848 21.6967C0.250813 21.9515 -0.03702 22.4722 0.00331333 23.0204C0.04548 23.5704 0.410313 24.0397 0.929147 24.2175L12.3966 28.1372L36.8185 7.25552L17.9205 30.0237L37.1393 36.5925C37.2823 36.6402 37.4327 36.6659 37.583 36.6659C37.8323 36.6659 38.0798 36.598 38.298 36.466C38.6463 36.2534 38.8828 35.8959 38.9433 35.4944L43.985 1.57769C44.0602 1.06435 43.8438 0.554686 43.4221 0.254019Z" fill="white"/>
</g>
<defs>
<clipPath id="clip0">
<rect width="44" height="44" fill="white"/>
</clipPath>
</defs>
</svg>
