<svg width="48" height="48" viewBox="0 0 48 48" fill="none" xmlns="http://www.w3.org/2000/svg">
<path d="M0.981007 29.6692L4.03634 26.614C4.35117 26.2992 4.79204 26.1446 5.23457 26.1937L12.564 27.0083C14.6882 23.7305 17.2313 20.548 19.8221 17.9572L28.988 8.79129C32.205 5.57419 35.6858 3.04739 38.7889 1.67622C42.1712 0.181761 44.8518 0.176814 46.3373 1.66221C47.8226 3.1476 47.8177 5.82838 46.3232 9.21054C44.9521 12.3137 42.4253 15.7943 39.2083 19.0114L30.0423 28.1773C27.4516 30.7681 24.269 33.3113 20.9912 35.4355L21.8058 42.7649C21.855 43.2074 21.7004 43.6483 21.3856 43.9631L18.3303 47.0184C18.0534 47.2953 17.6797 47.4478 17.294 47.4478C17.2216 47.4478 17.1488 47.4424 17.076 47.4315C16.6161 47.3623 16.2163 47.0789 15.9987 46.6679L12.3382 39.7531C11.7645 39.9149 11.1154 40.0536 10.4885 40.0536C9.79022 40.0536 9.12108 39.8819 8.61929 39.3802C7.66729 38.4282 7.90389 36.8737 8.24584 35.6611L1.33165 32.0009C0.920551 31.7834 0.637231 31.3835 0.568073 30.9236C0.498915 30.4635 0.65207 29.9981 0.981007 29.6692Z" fill="white"/>
<path d="M4.03634 6.24523L8.11008 2.17148C8.4971 1.78456 9.06749 1.64533 9.58934 1.81076L25.5318 6.86573C25.8592 6.96952 25.9601 7.38337 25.7172 7.6262L16.6262 16.7174C16.4689 16.8746 16.2213 16.8962 16.0392 16.7684L4.25801 8.50034C3.99292 8.3143 3.78389 8.05342 3.68221 7.74592C3.50432 7.20804 3.65015 6.63142 4.03634 6.24523Z" fill="white"/>
<path d="M41.7543 44.0132L45.828 39.9394C46.215 39.5524 46.3542 38.982 46.1888 38.4602L41.1338 22.5177C41.03 22.1903 40.6161 22.0895 40.3733 22.3323L31.2822 31.4234C31.1249 31.5806 31.1033 31.8282 31.2311 32.0103L39.4992 43.7916C39.6852 44.0567 39.9461 44.2657 40.2536 44.3674C40.7916 44.5452 41.3682 44.3994 41.7543 44.0132Z" fill="white"/>
</svg>
