<svg width="32" height="32" viewBox="0 0 32 32" fill="none" xmlns="http://www.w3.org/2000/svg">
<path d="M0.104544 12.2547C0.361263 11.3883 1.10437 10.7545 2.00042 10.6377L10.5049 9.46288L13.8703 1.42125C14.3616 0.24418 15.7142 -0.311646 16.8913 0.179699C17.4524 0.413988 17.8985 0.860068 18.1328 1.42118L21.4982 9.46282L30.0026 10.6376C31.2698 10.814 32.154 11.9842 31.9775 13.2513C31.9017 13.7958 31.6348 14.2956 31.2243 14.6613L24.8168 20.3751L26.1333 29.3413C26.2759 30.2517 25.8577 31.1588 25.0728 31.6417C24.2989 32.1366 23.3034 32.1181 22.5484 31.5948L16.0015 27.1426L9.45462 31.5994C8.39821 32.3164 6.96053 32.0412 6.24347 30.9848C5.91765 30.5047 5.7842 29.9197 5.8697 29.3459L7.18618 20.3763L0.778685 14.6625C0.0983162 14.0634 -0.165836 13.12 0.104544 12.2547Z" fill="white"/>
</svg>
