<svg width="20" height="29" viewBox="0 0 20 29" fill="none" xmlns="http://www.w3.org/2000/svg">
<path d="M20 17.8125C20 17.0613 19.7025 16.3612 19.1863 15.845C19.77 15.2062 20.0675 14.3499 19.9862 13.4587C19.84 11.87 18.4087 10.625 16.7263 10.625H9.00501C9.38751 9.46369 9.99999 7.33498 9.99999 5.62498C9.99999 2.91373 7.69626 0.625 6.24999 0.625C4.95126 0.625 4.02372 1.35625 3.98376 1.38625C3.83628 1.50502 3.75003 1.68502 3.75003 1.87498V6.11371L0.15003 13.9125L3.05176e-05 13.9887V27.3862C1.01751 27.8662 2.30499 28.125 3.12501 28.125H14.5988C15.96 28.125 17.1513 27.2075 17.4313 25.9413C17.575 25.29 17.4913 24.6337 17.205 24.0637C18.1288 23.5987 18.75 22.6475 18.75 21.5625C18.75 21.12 18.6488 20.6962 18.4563 20.3125C19.38 19.8475 20 18.8962 20 17.8125Z" fill="white"/>
</svg>
